<?xml version="1.0" encoding="utf-8"?>
<!-- Generator: Adobe Illustrator 14.0.0, SVG Export Plug-In . SVG Version: 6.00 Build 43363)  -->
<!DOCTYPE svg PUBLIC "-//W3C//DTD SVG 1.1//EN" "http://www.w3.org/Graphics/SVG/1.1/DTD/svg11.dtd">
<svg version="1.1" id="Ebene_1" xmlns="http://www.w3.org/2000/svg" xmlns:xlink="http://www.w3.org/1999/xlink" x="0px" y="0px"
	 width="78.768px" height="78.717px" viewBox="0 0 78.768 78.717" enable-background="new 0 0 78.768 78.717" xml:space="preserve">
<path fill="#004C6E" d="M60.273,6.032H28.287c-6.549,0-11.864,5.313-11.864,11.866v13.459h23.919c3.571,0,6.472,2.896,6.472,6.473
	v23.915h13.46c6.552,0,11.864-5.31,11.864-11.862V17.898C72.138,11.346,66.825,6.032,60.273,6.032"/>
<path fill="#8DC63F" d="M16.423,53.117v-21.76h-1.501c-4.767,0-8.626,3.863-8.626,8.629v23.26c0,4.769,3.859,8.633,8.626,8.633
	h23.261c4.763,0,8.631-3.864,8.631-8.633v-1.501H25.053C20.287,61.745,16.423,57.884,16.423,53.117"/>
</svg>
