<?xml version="1.0" encoding="utf-8"?>
<!-- Generator: Adobe Illustrator 14.0.0, SVG Export Plug-In . SVG Version: 6.00 Build 43363)  -->
<!DOCTYPE svg PUBLIC "-//W3C//DTD SVG 1.1//EN" "http://www.w3.org/Graphics/SVG/1.1/DTD/svg11.dtd">
<svg version="1.1" id="Ebene_1" xmlns="http://www.w3.org/2000/svg" xmlns:xlink="http://www.w3.org/1999/xlink" x="0px" y="0px"
	 width="266.256px" height="120px" viewBox="0 0 266.256 120" enable-background="new 0 0 266.256 120" xml:space="preserve">
<g>
	<path fill="#004C6E" stroke="#004C6E" stroke-width="0.5" d="M28.293,35.528c-2.125,0-4.085,0.304-5.88,0.911
		c-1.796,0.607-3.352,1.543-4.667,2.807c-1.316,1.265-2.34,2.872-3.073,4.818c-0.734,1.948-1.1,4.237-1.1,6.866
		c0,2.731,0.404,5.083,1.214,7.057c0.809,1.973,1.909,3.579,3.301,4.817c1.391,1.24,3.035,2.162,4.932,2.77s3.908,0.91,6.032,0.91
		c2.68,0,4.767-0.303,6.259-0.91c1.492-0.607,2.643-1.138,3.452-1.594l2.049,3.719c-1.468,0.81-3.162,1.53-5.083,2.162
		c-1.923,0.632-4.452,0.948-7.587,0.948c-2.833,0-5.476-0.431-7.929-1.29c-2.454-0.859-4.565-2.124-6.335-3.793
		c-1.771-1.67-3.162-3.719-4.173-6.146c-1.012-2.428-1.518-5.185-1.518-8.271c0-3.187,0.505-6.032,1.518-8.536
		c1.011-2.504,2.402-4.615,4.173-6.335c1.77-1.719,3.894-3.022,6.373-3.908c2.478-0.884,5.185-1.328,8.119-1.328
		c3.338,0,5.943,0.341,7.815,1.024c1.871,0.683,3.035,1.227,3.49,1.631c0.354,0.253,0.657,0.569,0.911,0.948
		c0.252,0.379,0.379,0.848,0.379,1.404c0,0.405-0.14,0.885-0.417,1.441c-0.278,0.557-0.696,1.038-1.252,1.442
		c-0.861-0.759-2.213-1.542-4.059-2.353C33.389,35.934,31.075,35.528,28.293,35.528z"/>
	<path fill="#004C6E" stroke="#004C6E" stroke-width="0.5" d="M78.217,34.846c0-0.759,0.214-1.378,0.645-1.859
		c0.429-0.48,1.125-0.721,2.086-0.721c0.455,0,0.897,0.064,1.328,0.19c0.429,0.127,0.746,0.241,0.948,0.341v21.928
		c0,2.378-0.405,4.552-1.214,6.525c-0.81,1.973-1.973,3.668-3.49,5.083c-1.518,1.417-3.376,2.517-5.577,3.301
		s-4.666,1.176-7.397,1.176s-5.186-0.392-7.36-1.176c-2.176-0.784-4.021-1.884-5.539-3.301c-1.517-1.415-2.682-3.11-3.49-5.083
		c-0.81-1.973-1.214-4.147-1.214-6.525V34.846c0-0.759,0.215-1.378,0.645-1.859c0.429-0.48,1.125-0.721,2.086-0.721
		c0.456,0,0.897,0.064,1.328,0.19c0.429,0.127,0.746,0.241,0.948,0.341v20.41c0,4.199,1.036,7.462,3.111,9.787
		c2.073,2.328,5.235,3.49,9.484,3.49c4.249,0,7.422-1.162,9.522-3.49c2.099-2.325,3.149-5.588,3.149-9.787V34.846z"/>
	<path fill="#004C6E" stroke="#004C6E" stroke-width="0.5" d="M91.722,16.408c0-0.759,0.215-1.377,0.645-1.859
		c0.429-0.48,1.125-0.721,2.087-0.721c0.455,0,0.897,0.064,1.328,0.189c0.429,0.127,0.746,0.241,0.948,0.341v24.432
		c1.618-2.276,3.718-4.109,6.298-5.501c2.58-1.391,5.387-2.086,8.422-2.086c2.933,0,5.64,0.506,8.119,1.518
		c2.478,1.012,4.602,2.416,6.373,4.211c1.77,1.796,3.149,3.896,4.135,6.297c0.986,2.403,1.479,4.996,1.479,7.777
		c0,2.731-0.493,5.299-1.479,7.701c-0.986,2.403-2.365,4.503-4.135,6.298c-1.771,1.796-3.896,3.213-6.373,4.248
		c-2.479,1.037-5.186,1.556-8.119,1.556c-2.53,0-4.882-0.367-7.056-1.101c-2.176-0.732-4.097-1.782-5.767-3.148
		c-1.669-1.365-3.061-3.035-4.173-5.008c-1.113-1.972-1.897-4.198-2.353-6.676c-0.102-0.708-0.189-1.529-0.265-2.466
		c-0.076-0.935-0.114-2.01-0.114-3.225V16.408z M126.168,51.007c0-2.174-0.341-4.211-1.024-6.108
		c-0.683-1.897-1.669-3.553-2.959-4.97c-1.29-1.416-2.833-2.516-4.628-3.301c-1.796-0.784-3.832-1.176-6.108-1.176
		c-2.227,0-4.237,0.392-6.032,1.176c-1.796,0.785-3.338,1.885-4.628,3.301c-1.29,1.417-2.29,3.073-2.997,4.97
		c-0.709,1.897-1.062,3.934-1.062,6.108c0,2.226,0.354,4.287,1.062,6.184c0.708,1.897,1.707,3.528,2.997,4.894
		c1.29,1.366,2.832,2.441,4.628,3.225c1.795,0.785,3.806,1.176,6.032,1.176c2.276,0,4.312-0.404,6.108-1.213
		c1.795-0.809,3.338-1.909,4.628-3.301c1.29-1.391,2.276-3.035,2.959-4.932C125.827,55.142,126.168,53.131,126.168,51.007z"/>
	<path fill="#004C6E" stroke="#004C6E" stroke-width="0.5" d="M143.315,54.269c0.556,3.896,2.174,6.905,4.856,9.03
		c2.681,2.124,6.222,3.186,10.623,3.186c2.58,0,4.768-0.365,6.562-1.1c1.795-0.732,3.174-1.377,4.135-1.935l2.201,3.642
		c-0.406,0.254-1.012,0.596-1.82,1.024c-0.811,0.431-1.797,0.848-2.959,1.252c-1.164,0.404-2.48,0.745-3.947,1.024
		c-1.467,0.277-3.084,0.417-4.855,0.417c-2.781,0-5.399-0.417-7.853-1.251c-2.454-0.836-4.604-2.061-6.449-3.681
		c-1.847-1.618-3.3-3.616-4.363-5.994c-1.062-2.377-1.593-5.133-1.593-8.27c0-3.035,0.505-5.804,1.518-8.308
		c1.011-2.504,2.428-4.653,4.249-6.449c1.821-1.795,3.983-3.187,6.487-4.173c2.504-0.986,5.247-1.479,8.233-1.479
		c2.529,0,4.742,0.292,6.639,0.873c1.896,0.582,3.477,1.404,4.742,2.466c1.264,1.062,2.213,2.314,2.846,3.756
		c0.631,1.441,0.947,2.997,0.947,4.666c0,1.669-0.342,3.2-1.023,4.59c-0.684,1.392-1.848,2.606-3.49,3.642
		c-1.645,1.038-3.846,1.847-6.602,2.428c-2.758,0.582-6.234,0.873-10.433,0.873c-1.619,0-3.099-0.012-4.438-0.038
		C146.186,54.434,144.782,54.371,143.315,54.269z M143.164,50.324c1.366,0.102,2.694,0.165,3.983,0.19
		c1.29,0.026,2.643,0.038,4.06,0.038c3.439,0,6.271-0.214,8.498-0.645c2.225-0.429,3.984-0.999,5.273-1.708
		c1.289-0.708,2.188-1.542,2.693-2.504c0.506-0.96,0.76-1.973,0.76-3.035c0-1.416-0.293-2.604-0.873-3.566
		c-0.582-0.96-1.365-1.732-2.354-2.314c-0.986-0.581-2.098-0.998-3.338-1.252c-1.24-0.252-2.516-0.379-3.832-0.379
		c-2.377,0-4.476,0.417-6.297,1.252c-1.821,0.834-3.352,1.961-4.59,3.376c-1.24,1.417-2.2,3.035-2.883,4.856
		C143.581,46.454,143.213,48.351,143.164,50.324z"/>
</g>
<g>
	<path fill="#004C6E" stroke="#004C6E" stroke-width="0.5" d="M126.509,101.641c0.159,0.113,0.444,0.262,0.854,0.443
		c0.41,0.183,0.916,0.371,1.519,0.563c0.603,0.194,1.292,0.358,2.066,0.495c0.773,0.137,1.616,0.205,2.526,0.205
		c1.184,0,2.151-0.154,2.902-0.461c0.751-0.308,1.126-0.836,1.126-1.588c0-0.637-0.239-1.121-0.717-1.451s-1.332-0.562-2.561-0.699
		l-2.663-0.308c-0.911-0.091-1.748-0.257-2.51-0.495c-0.763-0.239-1.417-0.563-1.963-0.973c-0.546-0.41-0.973-0.916-1.28-1.52
		c-0.307-0.604-0.461-1.326-0.461-2.168c0-0.729,0.142-1.418,0.427-2.066s0.734-1.223,1.349-1.725
		c0.615-0.5,1.417-0.893,2.407-1.178c0.99-0.283,2.19-0.426,3.602-0.426c2.367,0,4.205,0.262,5.514,0.785
		c1.309,0.523,1.963,1.207,1.963,2.049c0,0.272-0.051,0.512-0.154,0.717s-0.217,0.387-0.341,0.546
		c-0.125,0.159-0.256,0.29-0.393,0.393c-0.137,0.103-0.239,0.165-0.308,0.188c-0.091-0.092-0.29-0.234-0.597-0.428
		c-0.308-0.193-0.723-0.387-1.247-0.58c-0.524-0.193-1.149-0.363-1.878-0.512s-1.57-0.223-2.526-0.223
		c-2.641,0-3.96,0.695-3.96,2.083c0,0.593,0.25,1.041,0.751,1.349c0.5,0.307,1.217,0.518,2.151,0.631l3.483,0.444
		c1.889,0.251,3.357,0.769,4.404,1.554c1.047,0.785,1.57,1.941,1.57,3.465c0,1.708-0.677,3.074-2.031,4.098
		c-1.354,1.024-3.307,1.537-5.855,1.537c-1.229,0-2.345-0.092-3.346-0.273c-1.002-0.183-1.873-0.393-2.612-0.632
		c-0.74-0.239-1.337-0.472-1.792-0.7c-0.456-0.227-0.751-0.398-0.888-0.512L126.509,101.641z"/>
	<path fill="#004C6E" stroke="#004C6E" stroke-width="0.5" d="M159.695,104.68c-0.272,0.182-0.608,0.369-1.007,0.562
		s-0.854,0.376-1.365,0.547c-0.513,0.17-1.093,0.312-1.742,0.426c-0.648,0.114-1.383,0.172-2.201,0.172
		c-1.276,0-2.471-0.194-3.585-0.581c-1.116-0.387-2.095-0.962-2.937-1.724c-0.842-0.763-1.508-1.701-1.997-2.817
		c-0.49-1.114-0.734-2.401-0.734-3.858c0-1.456,0.239-2.754,0.717-3.893c0.478-1.137,1.138-2.094,1.98-2.867
		c0.842-0.773,1.838-1.359,2.988-1.758c1.149-0.398,2.384-0.598,3.704-0.598c1.115,0,2.065,0.091,2.852,0.272
		c0.785,0.183,1.422,0.409,1.911,0.683s0.843,0.58,1.059,0.922c0.217,0.342,0.324,0.684,0.324,1.024
		c0,0.456-0.153,0.877-0.461,1.264c-0.307,0.388-0.597,0.683-0.87,0.888c-0.41-0.387-1.002-0.757-1.775-1.109
		c-0.774-0.354-1.73-0.529-2.868-0.529c-0.774,0-1.497,0.113-2.168,0.342c-0.672,0.227-1.252,0.574-1.741,1.041
		c-0.49,0.467-0.876,1.047-1.161,1.74c-0.285,0.695-0.427,1.52-0.427,2.477c0,1.002,0.148,1.855,0.444,2.561
		c0.295,0.705,0.706,1.286,1.229,1.74c0.523,0.457,1.127,0.792,1.81,1.008c0.683,0.217,1.422,0.324,2.219,0.324
		c1.138,0,2.054-0.153,2.748-0.461c0.694-0.307,1.166-0.54,1.417-0.699L159.695,104.68z"/>
	<path fill="#004C6E" stroke="#004C6E" stroke-width="0.5" d="M178.064,105.84c-0.228,0.046-0.587,0.097-1.076,0.154
		c-0.489,0.057-1.063,0.113-1.724,0.17s-1.4,0.107-2.22,0.154c-0.819,0.045-1.673,0.068-2.561,0.068
		c-1.775,0-3.227-0.154-4.354-0.461c-1.126-0.308-2.014-0.717-2.663-1.229c-0.648-0.513-1.092-1.104-1.331-1.775
		s-0.358-1.36-0.358-2.065c0-0.934,0.142-1.753,0.427-2.459c0.284-0.705,0.751-1.297,1.399-1.775
		c0.649-0.478,1.497-0.836,2.544-1.075s2.321-0.358,3.824-0.358c0.864,0,1.684,0.029,2.458,0.085
		c0.773,0.058,1.354,0.108,1.741,0.153c0-0.796-0.131-1.456-0.393-1.98c-0.262-0.522-0.62-0.932-1.075-1.229
		c-0.456-0.295-1.002-0.5-1.639-0.614c-0.638-0.114-1.344-0.171-2.117-0.171c-1.298,0-2.339,0.148-3.124,0.443
		c-0.785,0.297-1.304,0.547-1.554,0.752c-0.137-0.113-0.324-0.33-0.563-0.648c-0.239-0.319-0.358-0.706-0.358-1.162
		c0-0.318,0.085-0.631,0.256-0.938s0.473-0.58,0.905-0.819c0.432-0.238,1.013-0.427,1.741-0.563
		c0.729-0.136,1.649-0.204,2.766-0.204c1.343,0,2.565,0.131,3.67,0.393c1.104,0.262,2.054,0.678,2.852,1.246
		c0.796,0.568,1.417,1.32,1.86,2.253c0.444,0.934,0.666,2.061,0.666,3.38V105.84z M174.206,98.26
		c-0.228-0.045-0.654-0.113-1.28-0.205c-0.626-0.09-1.565-0.136-2.816-0.136c-1.549,0-2.676,0.233-3.381,0.7s-1.059,1.2-1.059,2.201
		c0,0.41,0.074,0.785,0.223,1.127c0.147,0.342,0.403,0.632,0.768,0.871c0.364,0.238,0.859,0.422,1.485,0.547
		s1.405,0.188,2.339,0.188c1.047,0,1.878-0.04,2.492-0.12c0.615-0.079,1.024-0.142,1.229-0.188V98.26z"/>
	<path fill="#004C6E" stroke="#004C6E" stroke-width="0.5" d="M181.205,82.555c0-0.615,0.182-1.07,0.546-1.365
		c0.364-0.297,0.876-0.445,1.536-0.445c0.41,0,0.785,0.052,1.127,0.154s0.568,0.177,0.683,0.223v24.787h-3.892V82.555z"/>
	<path fill="#004C6E" stroke="#004C6E" stroke-width="0.5" d="M204.149,105.84c-0.228,0.046-0.587,0.097-1.076,0.154
		c-0.489,0.057-1.063,0.113-1.724,0.17s-1.4,0.107-2.22,0.154c-0.819,0.045-1.673,0.068-2.561,0.068
		c-1.775,0-3.227-0.154-4.354-0.461c-1.126-0.308-2.014-0.717-2.663-1.229c-0.648-0.513-1.092-1.104-1.331-1.775
		s-0.358-1.36-0.358-2.065c0-0.934,0.142-1.753,0.427-2.459c0.284-0.705,0.751-1.297,1.399-1.775
		c0.649-0.478,1.497-0.836,2.544-1.075s2.321-0.358,3.824-0.358c0.864,0,1.684,0.029,2.458,0.085
		c0.773,0.058,1.354,0.108,1.741,0.153c0-0.796-0.131-1.456-0.393-1.98c-0.262-0.522-0.62-0.932-1.075-1.229
		c-0.456-0.295-1.002-0.5-1.639-0.614c-0.638-0.114-1.344-0.171-2.117-0.171c-1.298,0-2.339,0.148-3.124,0.443
		c-0.785,0.297-1.304,0.547-1.554,0.752c-0.137-0.113-0.324-0.33-0.563-0.648c-0.239-0.319-0.358-0.706-0.358-1.162
		c0-0.318,0.085-0.631,0.256-0.938s0.473-0.58,0.905-0.819c0.432-0.238,1.013-0.427,1.741-0.563
		c0.729-0.136,1.649-0.204,2.766-0.204c1.343,0,2.565,0.131,3.67,0.393c1.104,0.262,2.054,0.678,2.852,1.246
		c0.796,0.568,1.417,1.32,1.86,2.253c0.444,0.934,0.666,2.061,0.666,3.38V105.84z M200.291,98.26
		c-0.228-0.045-0.654-0.113-1.28-0.205c-0.626-0.09-1.565-0.136-2.816-0.136c-1.549,0-2.676,0.233-3.381,0.7s-1.059,1.2-1.059,2.201
		c0,0.41,0.074,0.785,0.223,1.127c0.147,0.342,0.403,0.632,0.768,0.871c0.364,0.238,0.859,0.422,1.485,0.547
		s1.405,0.188,2.339,0.188c1.047,0,1.878-0.04,2.492-0.12c0.615-0.079,1.024-0.142,1.229-0.188V98.26z"/>
	<path fill="#004C6E" stroke="#004C6E" stroke-width="0.5" d="M208.996,101.641c0.159,0.113,0.444,0.262,0.854,0.443
		c0.41,0.183,0.916,0.371,1.52,0.563c0.604,0.194,1.292,0.358,2.065,0.495c0.774,0.137,1.616,0.205,2.527,0.205
		c1.183,0,2.15-0.154,2.901-0.461c0.752-0.308,1.127-0.836,1.127-1.588c0-0.637-0.239-1.121-0.717-1.451s-1.332-0.562-2.561-0.699
		l-2.663-0.308c-0.911-0.091-1.747-0.257-2.51-0.495c-0.763-0.239-1.417-0.563-1.963-0.973c-0.547-0.41-0.974-0.916-1.28-1.52
		c-0.308-0.604-0.461-1.326-0.461-2.168c0-0.729,0.142-1.418,0.427-2.066c0.284-0.648,0.733-1.223,1.349-1.725
		c0.614-0.5,1.417-0.893,2.406-1.178c0.99-0.283,2.191-0.426,3.603-0.426c2.367,0,4.205,0.262,5.514,0.785s1.964,1.207,1.964,2.049
		c0,0.272-0.052,0.512-0.154,0.717c-0.102,0.205-0.216,0.387-0.341,0.546c-0.126,0.159-0.256,0.29-0.393,0.393
		s-0.239,0.165-0.308,0.188c-0.091-0.092-0.29-0.234-0.598-0.428c-0.307-0.193-0.723-0.387-1.246-0.58s-1.149-0.363-1.878-0.512
		s-1.57-0.223-2.526-0.223c-2.641,0-3.961,0.695-3.961,2.083c0,0.593,0.251,1.041,0.752,1.349c0.5,0.307,1.217,0.518,2.15,0.631
		l3.482,0.444c1.89,0.251,3.357,0.769,4.404,1.554s1.571,1.941,1.571,3.465c0,1.708-0.678,3.074-2.032,4.098
		c-1.354,1.024-3.306,1.537-5.855,1.537c-1.229,0-2.345-0.092-3.346-0.273c-1.002-0.183-1.872-0.393-2.612-0.632
		c-0.739-0.239-1.337-0.472-1.792-0.7c-0.456-0.227-0.751-0.398-0.888-0.512L208.996,101.641z"/>
	<path fill="#004C6E" stroke="#004C6E" stroke-width="0.5" d="M241.534,104.68c-0.272,0.182-0.608,0.369-1.007,0.562
		s-0.854,0.376-1.365,0.547c-0.513,0.17-1.093,0.312-1.742,0.426c-0.648,0.114-1.383,0.172-2.202,0.172
		c-1.274,0-2.47-0.194-3.585-0.581s-2.094-0.962-2.936-1.724c-0.843-0.763-1.509-1.701-1.998-2.817
		c-0.489-1.114-0.733-2.401-0.733-3.858c0-1.456,0.238-2.754,0.717-3.893c0.478-1.137,1.138-2.094,1.98-2.867
		c0.842-0.773,1.838-1.359,2.987-1.758s2.384-0.598,3.704-0.598c1.115,0,2.065,0.091,2.852,0.272
		c0.785,0.183,1.422,0.409,1.911,0.683s0.843,0.58,1.059,0.922c0.217,0.342,0.324,0.684,0.324,1.024
		c0,0.456-0.153,0.877-0.461,1.264c-0.307,0.388-0.597,0.683-0.87,0.888c-0.41-0.387-1.002-0.757-1.775-1.109
		c-0.774-0.354-1.73-0.529-2.868-0.529c-0.774,0-1.497,0.113-2.168,0.342c-0.672,0.227-1.252,0.574-1.741,1.041
		c-0.49,0.467-0.877,1.047-1.161,1.74c-0.285,0.695-0.427,1.52-0.427,2.477c0,1.002,0.147,1.855,0.444,2.561
		c0.295,0.705,0.705,1.286,1.229,1.74c0.523,0.457,1.127,0.792,1.81,1.008c0.683,0.217,1.423,0.324,2.22,0.324
		c1.138,0,2.054-0.153,2.748-0.461c0.694-0.307,1.166-0.54,1.417-0.699L241.534,104.68z"/>
	<path fill="#004C6E" stroke="#004C6E" stroke-width="0.5" d="M259.084,105.84c-0.228,0.046-0.587,0.097-1.076,0.154
		c-0.489,0.057-1.063,0.113-1.724,0.17s-1.4,0.107-2.22,0.154c-0.819,0.045-1.673,0.068-2.561,0.068
		c-1.775,0-3.227-0.154-4.354-0.461c-1.126-0.308-2.014-0.717-2.663-1.229c-0.648-0.513-1.092-1.104-1.331-1.775
		s-0.358-1.36-0.358-2.065c0-0.934,0.142-1.753,0.427-2.459c0.284-0.705,0.751-1.297,1.399-1.775
		c0.649-0.478,1.497-0.836,2.544-1.075s2.321-0.358,3.824-0.358c0.864,0,1.684,0.029,2.458,0.085
		c0.773,0.058,1.354,0.108,1.741,0.153c0-0.796-0.131-1.456-0.393-1.98c-0.262-0.522-0.62-0.932-1.075-1.229
		c-0.456-0.295-1.002-0.5-1.639-0.614c-0.638-0.114-1.344-0.171-2.117-0.171c-1.298,0-2.339,0.148-3.124,0.443
		c-0.785,0.297-1.304,0.547-1.554,0.752c-0.137-0.113-0.324-0.33-0.563-0.648c-0.239-0.319-0.358-0.706-0.358-1.162
		c0-0.318,0.085-0.631,0.256-0.938s0.473-0.58,0.905-0.819c0.432-0.238,1.013-0.427,1.741-0.563
		c0.729-0.136,1.649-0.204,2.766-0.204c1.343,0,2.565,0.131,3.67,0.393c1.104,0.262,2.054,0.678,2.852,1.246
		c0.796,0.568,1.417,1.32,1.86,2.253c0.444,0.934,0.666,2.061,0.666,3.38V105.84z M255.226,98.26
		c-0.228-0.045-0.654-0.113-1.28-0.205c-0.626-0.09-1.565-0.136-2.816-0.136c-1.549,0-2.676,0.233-3.381,0.7s-1.059,1.2-1.059,2.201
		c0,0.41,0.074,0.785,0.223,1.127c0.147,0.342,0.403,0.632,0.768,0.871c0.364,0.238,0.859,0.422,1.485,0.547
		s1.405,0.188,2.339,0.188c1.047,0,1.878-0.04,2.492-0.12c0.615-0.079,1.024-0.142,1.229-0.188V98.26z"/>
</g>
<path fill="#004C6E" d="M247.762,6.032h-31.986c-6.549,0-11.864,5.313-11.864,11.866v13.459h23.919c3.571,0,6.472,2.896,6.472,6.473
	v23.915h13.46c6.552,0,11.864-5.31,11.864-11.862V17.898C259.626,11.346,254.313,6.032,247.762,6.032"/>
<path fill="#8DC63F" d="M203.911,53.117v-21.76h-1.501c-4.767,0-8.626,3.863-8.626,8.629v23.26c0,4.769,3.859,8.633,8.626,8.633
	h23.261c4.763,0,8.631-3.864,8.631-8.633v-1.501h-21.761C207.775,61.745,203.911,57.884,203.911,53.117"/>
</svg>
